<svg xmlns="http://www.w3.org/2000/svg" viewBox="60 40 290 295">
  <defs>
    <linearGradient id="g" x1="0" y1="0" x2="520" y2="480" gradientUnits="userSpaceOnUse">
      <stop offset="0%" stop-color="#4C1D95"/>
      <stop offset="50%" stop-color="#00D9FF"/>
      <stop offset="100%" stop-color="#39FF14"/>
    </linearGradient>
  </defs>

  <path d="M 188,105 L 66,45 L 84,62 L 198,130 Z" fill="url(#g)"/>
  <path d="M 186,132 L 104,80 L 118,96 L 198,157 Z" fill="url(#g)"/>
  <path d="M 198,88 C 230,76 275,80 316,104 C 337,116 346,130 342,134 C 320,122 298,120 278,128 L 260,136 L 248,140 L 248,252 L 323,252 L 323,272 L 220,272 Q 198,272 198,252 Z" fill="url(#g)"/>
  <path d="M 198,254 L 78,326 L 188,252 Z" fill="url(#g)"/>

  <line x1="84" y1="62" x2="198" y2="130" stroke="white" stroke-width="8" stroke-linecap="round"/>
  <line x1="198" y1="88" x2="198" y2="272" stroke="white" stroke-width="7"/>
  <line x1="198" y1="252" x2="323" y2="252" stroke="white" stroke-width="7"/>
  <line x1="248" y1="140" x2="262" y2="135" stroke="white" stroke-width="5"/>
</svg>
